<?xml version="1.0" encoding="UTF-8"?>
<svg version="1.1" xmlns="http://www.w3.org/2000/svg" width="634" height="250">
<path d="M0 0 C1 3 1 3 0.09130859 5.36914062 C-0.38483887 6.28888672 -0.86098633 7.20863281 -1.3515625 8.15625 C-2.13466797 9.69152344 -2.13466797 9.69152344 -2.93359375 11.2578125 C-3.49175781 12.32773437 -4.04992187 13.39765625 -4.625 14.5 C-5.70251848 16.59272264 -6.77805224 18.68646842 -7.8515625 20.78125 C-8.37782227 21.80734375 -8.90408203 22.8334375 -9.44628906 23.890625 C-11.76618543 28.53333402 -13.90146551 33.25384788 -16 38 C-15.46922852 38.15710449 -14.93845703 38.31420898 -14.39160156 38.47607422 C-8.15571803 40.42529508 -2.51363631 43.06716661 3.25 46.125 C4.62273071 46.84707642 4.62273071 46.84707642 6.02319336 47.58374023 C12.51572074 51.05920245 18.57234359 54.86654184 24.50390625 59.22265625 C26.85731066 61.00904812 26.85731066 61.00904812 29.125 62.00390625 C31.48799551 63.25924761 32.74959346 64.80897121 34.4375 66.875 C36.44598007 69.27318515 38.06467564 71.04619689 40.625 72.875 C44.31899456 76.18015303 46.21324037 80.41688893 48 85 C48.04125 86.093125 48.0825 87.18625 48.125 88.3125 C48.74382563 91.21992923 48.74382563 91.21992923 51.49609375 92.47265625 C54.30052391 93.75519183 57.11057292 94.92420013 60 96 C56.35839192 97.21386936 55.66834531 96.6674695 52.3125 95.0625 C51.50425781 94.68222656 50.69601562 94.30195312 49.86328125 93.91015625 C49.24839844 93.60980469 48.63351562 93.30945313 48 93 C47.67 94.65 47.34 96.3 47 98 C44.36 98 41.72 98 39 98 C40.875 92.25 40.875 92.25 42 90 C40.35 89.67 38.7 89.34 37 89 C36.80664062 89.59167969 36.61328125 90.18335937 36.4140625 90.79296875 C36.15367187 91.58316406 35.89328125 92.37335938 35.625 93.1875 C35.36976563 93.96480469 35.11453125 94.74210937 34.8515625 95.54296875 C33.97789204 98.06378857 32.99814789 100.52625081 32 103 C32.79696289 102.98952637 33.59392578 102.97905273 34.41503906 102.96826172 C38.02666062 102.92668228 41.63823179 102.90066739 45.25 102.875 C46.50425781 102.85824219 47.75851562 102.84148437 49.05078125 102.82421875 C50.25605469 102.81777344 51.46132813 102.81132813 52.703125 102.8046875 C54.36843262 102.78897705 54.36843262 102.78897705 56.06738281 102.77294922 C58.96721918 102.99746202 60.59829417 103.39862856 63 105 C65.11041232 109.22082463 64.27370093 114.03092067 63.0390625 118.40234375 C62.57242188 119.56894531 62.10578125 120.73554688 61.625 121.9375 C61.36895996 122.58847656 61.11291992 123.23945313 60.84912109 123.91015625 C60.25997154 125.40081643 59.6639397 126.88876771 59.0625 128.37451172 C57.82039472 131.44381324 56.59759371 134.52053192 55.375 137.59765625 C52.93146019 143.73777753 50.46946442 149.87026222 48 156 C42.72 156 37.44 156 32 156 C34.81566529 147.24533209 38.16141177 138.71884718 41.50390625 130.15429688 C41.93832031 129.03474609 42.37273437 127.91519531 42.8203125 126.76171875 C43.21492676 125.75069092 43.60954102 124.73966309 44.01611328 123.69799805 C45.11934581 120.81874622 45.11934581 120.81874622 46 117 C39.4 116.67 32.8 116.34 26 116 C25.63261719 117.32773438 25.26523437 118.65546875 24.88671875 120.0234375 C22.67218581 127.40521396 19.71031733 134.49282449 16.8125 141.625 C16.24764205 143.02457627 15.68318594 144.42431479 15.11914062 145.82421875 C13.75144429 149.21835503 12.37558912 152.60901288 11 156 C5.72 156 0.44 156 -5 156 C-4.17044212 151.8522106 -3.15348129 148.55785915 -1.60742188 144.66503906 C-1.36504288 144.05144028 -1.12266388 143.43784149 -0.87294006 142.8056488 C-0.07570628 140.79062856 0.72761383 138.77809946 1.53125 136.765625 C2.08822768 135.36280888 2.64490464 133.95987332 3.20129395 132.55682373 C4.36542286 129.62389337 5.53244054 126.69213501 6.70166016 123.76123047 C8.20281019 119.99789459 9.69784655 116.23216678 11.19089508 112.4656105 C12.33839744 109.57214611 13.48852011 106.67972927 14.63951111 103.78765106 C15.19200945 102.39879049 15.74381908 101.00965575 16.29493713 99.62024689 C17.06318517 97.68491854 17.83480537 95.75097058 18.60742188 93.81738281 C19.04630737 92.71549622 19.48519287 91.61360962 19.93737793 90.47833252 C21 88 21 88 22 87 C24.32817964 86.63239269 26.6618385 86.29758419 29 86 C22.02620833 83.20539457 15.05186658 80.41216538 8.07714844 77.61987305 C5.70658005 76.67064258 3.33613578 75.72110208 0.96582031 74.77124023 C-2.44954024 73.40265852 -5.86535185 72.03520801 -9.28125 70.66796875 C-10.33364868 70.24597702 -11.38604736 69.82398529 -12.47033691 69.38920593 C-17.95766679 67.19419113 -23.45670822 65.04974231 -29 63 C-36.58629223 75.08938859 -43.983783 87.27901515 -51.25 99.5625 C-59.3477299 113.24883822 -67.55575406 126.86261132 -75.83251953 140.44140625 C-79.36477384 146.23821702 -82.88486355 152.04242387 -86.40667725 157.84558105 C-88.23036114 160.85041734 -90.05465699 163.85488192 -91.87890625 166.859375 C-92.4829126 167.85420898 -93.08691895 168.84904297 -93.70922852 169.87402344 C-94.13518311 170.5755957 -94.5611377 171.27716797 -95 172 C-95.33 171.34 -95.66 170.68 -96 170 C-95.1105957 167.82714844 -95.1105957 167.82714844 -93.67578125 165.109375 C-93.14823242 164.10189209 -92.62068359 163.09440918 -92.07714844 162.05639648 C-91.49481445 160.96528564 -90.91248047 159.8741748 -90.3125 158.75 C-89.41772949 157.05242554 -89.41772949 157.05242554 -88.50488281 155.32055664 C-84.33858834 147.44176076 -80.09029972 139.60846141 -75.79956055 131.796875 C-70.960423 122.97426768 -66.24734042 114.086434 -61.53619385 105.19509888 C-55.86193677 94.48713411 -50.14482031 83.80363691 -44.37744141 73.14550781 C-43.84296387 72.15647461 -43.30848633 71.16744141 -42.7578125 70.1484375 C-42.06389404 68.86718994 -42.06389404 68.86718994 -41.35595703 67.56005859 C-39.85665296 64.72935955 -38.42264529 61.86988209 -37 59 C-37.85303711 58.61368408 -38.70607422 58.22736816 -39.58496094 57.8293457 C-42.16216948 56.66191614 -44.73879782 55.49321442 -47.31518555 54.32397461 C-50.28931429 52.9742513 -53.26494999 51.62792102 -56.24145508 50.28344727 C-63.60705083 46.94990128 -70.942719 43.57236207 -78.21484375 40.0390625 C-80.10457734 39.12932042 -81.99483094 38.22066584 -83.88513184 37.31210327 C-85.65976028 36.45096076 -87.42424178 35.569008 -89.18847656 34.68676758 C-90.26452148 34.17009521 -91.34056641 33.65342285 -92.44921875 33.12109375 C-93.38080811 32.6614624 -94.31239746 32.20183105 -95.2722168 31.72827148 C-98.82386675 30.78004166 -100.68711542 31.52880714 -104 33 C-106.19813991 34.83178326 -106.86691284 36.16697297 -107.31640625 38.98046875 C-107.6227902 44.72269693 -106.30487297 49.27186057 -103 54 C-102.01 54.495 -102.01 54.495 -101 55 C-100.62875 55.70125 -100.2575 56.4025 -99.875 57.125 C-96.77831429 61.87325142 -92.43314743 66.18895086 -87 68 C-86.17048828 68.86625 -86.17048828 68.86625 -85.32421875 69.75 C-82.16375969 72.80953684 -78.60698698 74.80895765 -74.8125 77 C-74.09513672 77.42539063 -73.37777344 77.85078125 -72.63867188 78.2890625 C-67.57605777 81.24414253 -62.40016001 83.72390607 -57 86 C-57 86.99 -57 87.98 -57 89 C-76.90296982 85.71321061 -98.32085063 68.28853428 -110.7265625 52.8515625 C-114.53396221 47.31565004 -115.63232057 42.53397921 -115 36 C-113.50753576 32.80186234 -111.73024573 30.25542038 -109 28 C-108.34 28 -107.68 28 -107 28 C-107 27.34 -107 26.68 -107 26 C-107.53657227 25.83636963 -108.07314453 25.67273926 -108.62597656 25.50415039 C-114.59176111 23.61009741 -120.13228827 21.18363819 -125.75 18.4375 C-132.77834468 15.00038078 -132.77834468 15.00038078 -140 12 C-135.92961071 10.64320357 -133.55128005 12.16432003 -129.8046875 13.78125 C-128.35180607 14.38209971 -126.89867265 14.98234041 -125.4453125 15.58203125 C-123.16447991 16.53555822 -120.88661716 17.49503662 -118.61328125 18.46630859 C-108.24359442 23.29973697 -108.24359442 23.29973697 -97.13476562 23.47314453 C-75.31760266 18.63763883 -50.75544327 25.68636153 -30.09814453 32.33691406 C-27.08280543 33.28986507 -24.04537714 34.14842983 -21 35 C-20.68361572 34.47269287 -20.36723145 33.94538574 -20.04125977 33.40209961 C-13.36083984 22.26806641 -6.68041992 11.1340332 0 0 Z M-94 29 C-93.24831543 29.30067383 -92.49663086 29.60134766 -91.72216797 29.91113281 C-89.43233937 30.82706425 -87.14254824 31.74308935 -84.8527832 32.65917969 C-82.17979624 33.72842432 -79.50641491 34.79667534 -76.83276367 35.86425781 C-70.39880373 38.43425575 -63.96708435 41.00922649 -57.54644775 43.61236572 C-54.79723535 44.72667948 -52.04653311 45.83728809 -49.29571533 46.94763184 C-47.97574854 47.48166327 -46.65652956 48.01754688 -45.33807373 48.55529785 C-43.49420177 49.30714755 -41.6475517 50.05217325 -39.80078125 50.796875 C-38.75059814 51.22323242 -37.70041504 51.64958984 -36.6184082 52.08886719 C-33.98984034 53.16432179 -33.98984034 53.16432179 -31 53 C-29.44870495 50.8940354 -28.12351225 48.87244957 -26.8125 46.625 C-26.44447266 46.02171875 -26.07644531 45.4184375 -25.69726562 44.796875 C-23.65752013 41.62048244 -23.65752013 41.62048244 -23 38 C-58.40960125 24.79050711 -58.40960125 24.79050711 -94 29 Z M-18 40 C-20.64 45.61 -23.28 51.22 -26 57 C-9.72006542 64.671695 6.56055287 72.34206815 22.86395264 79.96380615 C24.15604615 80.56802429 25.44791886 81.17271486 26.73956299 81.77789307 C28.54057392 82.62153653 30.3425324 83.46315628 32.14453125 84.3046875 C33.66590698 85.0160083 33.66590698 85.0160083 35.21801758 85.74169922 C37.78727788 86.90378501 40.37295502 87.97635108 43 89 C43.50753344 86.79847753 43.50753344 86.79847753 43 84 C41.22697178 81.45634186 39.11216713 79.26340872 37 77 C35.9790625 75.700625 35.9790625 75.700625 34.9375 74.375 C32.7808715 71.73139088 30.44253893 69.37990973 28 67 C27.46375 66.401875 26.9275 65.80375 26.375 65.1875 C24.92438937 63.67319006 24.92438937 63.67319006 22 64 C21.78472656 63.41605469 21.56945312 62.83210938 21.34765625 62.23046875 C19.52971856 59.22165013 17.45166477 58.11194505 14.4375 56.3125 C13.87393799 55.97581299 13.31037598 55.63912598 12.72973633 55.29223633 C7.94779788 52.47344344 3.07944864 49.80967082 -1.8125 47.1875 C-2.50480713 46.81471924 -3.19711426 46.44193848 -3.91040039 46.05786133 C-4.58578857 45.70232178 -5.26117676 45.34678223 -5.95703125 44.98046875 C-6.83838745 44.51483521 -6.83838745 44.51483521 -7.73754883 44.03979492 C-11.07797151 42.50457746 -14.5577559 41.29084154 -18 40 Z " fill="#359CFB" transform="translate(250,14)"/>
<path d="M0 0 C0.9653064 0.00424484 1.93061279 0.00848969 2.9251709 0.01286316 C5.9816583 0.02953778 9.03746485 0.06716883 12.09375 0.10546875 C14.17707375 0.12053009 16.26040793 0.13421595 18.34375 0.14648438 C23.42734215 0.17940451 28.51043099 0.23110859 33.59375 0.29296875 C30.57174943 9.60634718 27.08824009 18.72412725 23.54370117 27.84912109 C22.78655724 29.80869215 22.03717266 31.77127929 21.2956543 33.73681641 C12.15827576 57.93720899 12.15827576 57.93720899 3.35864258 62.43554688 C-2.99611963 64.40622457 -9.47170536 64.43621403 -16.0625 64.390625 C-16.85023804 64.38921005 -17.63797607 64.3877951 -18.44958496 64.38633728 C-20.93518064 64.38079487 -23.42068211 64.3682536 -25.90625 64.35546875 C-27.60416535 64.35044629 -29.30208214 64.3458847 -31 64.34179688 C-35.13545229 64.33084439 -39.27083524 64.31362041 -43.40625 64.29296875 C-42.94988464 62.89649075 -42.49105512 61.50081795 -42.03125 60.10546875 C-41.77601563 59.32816406 -41.52078125 58.55085938 -41.2578125 57.75 C-40.38633898 55.23551907 -39.3946015 52.76384749 -38.40625 50.29296875 C-26.52625 49.96296875 -14.64625 49.63296875 -2.40625 49.29296875 C-1.41625 47.31296875 -0.42625 45.33296875 0.59375 43.29296875 C-0.15720947 43.3086792 -0.90816895 43.32438965 -1.68188477 43.34057617 C-5.11076211 43.40324633 -8.53951855 43.44206136 -11.96875 43.48046875 C-13.15017578 43.50560547 -14.33160156 43.53074219 -15.54882812 43.55664062 C-21.95768598 43.61049657 -26.7646148 43.4493021 -32.40625 40.29296875 C-32.93685784 32.58727581 -31.24412466 27.14869439 -28.21875 20.10546875 C-27.83138672 19.14705078 -27.44402344 18.18863281 -27.04492188 17.20117188 C-24.19416023 10.38290395 -21.87893166 4.91038873 -14.88793945 1.65429688 C-9.92428203 -0.10318769 -5.21697441 -0.08769294 0 0 Z M-9.40625 15.29296875 C-12.61957686 19.37142207 -13.90016987 24.39019726 -15.40625 29.29296875 C-13.00565183 30.49326783 -11.51264351 30.40756618 -8.8359375 30.390625 C-7.49208984 30.38579102 -7.49208984 30.38579102 -6.12109375 30.38085938 C-5.18394531 30.37248047 -4.24679687 30.36410156 -3.28125 30.35546875 C-2.33636719 30.35095703 -1.39148438 30.34644531 -0.41796875 30.34179688 C1.91933387 30.32999232 4.25651061 30.31352634 6.59375 30.29296875 C7.59794637 27.83627405 8.59725501 25.37778522 9.59375 22.91796875 C10.02300781 21.86996094 10.02300781 21.86996094 10.4609375 20.80078125 C12.03899399 17.16410914 12.03899399 17.16410914 12.59375 13.29296875 C9.86431463 13.23880134 7.13596436 13.1992165 4.40625 13.16796875 C3.63732422 13.15121094 2.86839844 13.13445312 2.07617188 13.1171875 C-2.18484644 13.08061224 -5.56999844 13.1958179 -9.40625 15.29296875 Z " fill="#131313" transform="translate(469.40625,116.70703125)"/>
<path d="M0 0 C19.47 0 38.94 0 59 0 C56.89530545 10.52347273 54.29572083 16.84534946 45.3125 22.9375 C43.00836973 24.461191 40.69211053 25.96315479 38.36572266 27.45263672 C34.47657888 29.99643375 30.74738314 32.75358254 27 35.5 C18.38961634 41.74750784 9.70119503 47.8796679 1 54 C19.315 54.495 19.315 54.495 38 55 C36.43297876 59.70106371 34.84037311 64.39906723 33 69 C12.87 69 -7.26 69 -28 69 C-24.50949592 57.3649864 -22.75360224 54.10796526 -13.4375 47.5 C-12.59340576 46.88979004 -11.74931152 46.27958008 -10.87963867 45.65087891 C-8.25909737 43.75874023 -5.6300507 41.87889003 -3 40 C-0.67874988 38.32979761 1.64045002 36.65678575 3.95922852 34.9831543 C5.43811005 33.91583835 6.91775882 32.84958462 8.39819336 31.78442383 C16.01323277 26.29608429 23.50706993 20.65375632 31 15 C19.12 14.67 7.24 14.34 -5 14 C-3.43297876 9.29893629 -1.84037311 4.60093277 0 0 Z " fill="#111111" transform="translate(519,101)"/>
<path d="M0 0 C5.28 0 10.56 0 16 0 C13.85937438 6.63796526 11.43416058 13.10079407 8.8125 19.5625 C8.44447266 20.47580078 8.07644531 21.38910156 7.69726562 22.33007812 C6.80056454 24.55436264 5.90144402 26.77763445 5 29 C5.33 29.33 5.66 29.66 6 30 C6.44279297 29.58226318 6.88558594 29.16452637 7.34179688 28.73413086 C9.39314917 26.80044849 11.44656317 24.86896851 13.5 22.9375 C14.19609375 22.28072266 14.8921875 21.62394531 15.609375 20.94726562 C19.11484144 17.65277634 22.64935145 14.4182383 26.296875 11.28125 C28.428774 9.43961323 30.22667424 7.73049991 32.046875 5.56640625 C34.76400042 2.36942153 37.08163148 0.2837164 41.35400391 -0.34814453 C47.24706231 -0.692509 53.11811245 -0.44103555 59 0 C55.58364123 4.11074063 52.14995354 7.96331951 48.125 11.5 C47.26132813 12.263125 46.39765625 13.02625 45.5078125 13.8125 C44.26644531 14.8953125 44.26644531 14.8953125 43 16 C42.31679687 16.598125 41.63359375 17.19625 40.9296875 17.8125 C39.64940617 18.93209825 38.36816459 20.05059943 37.0859375 21.16796875 C29.90311987 27.43369236 29.90311987 27.43369236 23 34 C23.33322266 34.95366455 23.66644531 35.9073291 24.00976562 36.88989258 C25.24442333 40.42733822 26.47298261 43.96687631 27.69970703 47.50708008 C28.23157201 49.03923413 28.76509085 50.5708151 29.30029297 52.10180664 C30.06913435 54.30206236 30.83201147 56.50430801 31.59375 58.70703125 C31.83436157 59.39150833 32.07497314 60.07598541 32.32287598 60.78120422 C33.31225239 63.65837218 34 65.93309937 34 69 C27.4 69 20.8 69 14 69 C11.05816228 61.87971137 8.53778643 54.72930058 6.25 47.375 C5.93417969 46.37082031 5.61835937 45.36664063 5.29296875 44.33203125 C4.52518473 41.88908208 3.76092368 39.44509287 3 37 C0.43513757 39.56486243 -0.52548028 42.4412238 -1.8203125 45.7578125 C-2.08383514 46.42086395 -2.34735779 47.08391541 -2.61886597 47.76705933 C-3.45911916 49.88447992 -4.29213138 52.00466532 -5.125 54.125 C-5.69353571 55.5613859 -6.26254047 56.99758624 -6.83203125 58.43359375 C-8.22769969 61.95328239 -9.61354241 65.47661694 -11 69 C-16.28 69 -21.56 69 -27 69 C-24.74556223 60.97250719 -21.85587329 53.34276539 -18.7109375 45.625 C-18.20158754 44.36627826 -17.69261203 43.10740493 -17.18399048 41.84838867 C-15.85679096 38.56625581 -14.52412462 35.28636989 -13.19036865 32.00689697 C-12.098575 29.31962493 -11.01078798 26.63073981 -9.92317772 23.94177246 C-7.67872504 18.39307917 -5.43126251 12.84559616 -3.17724609 7.30078125 C-2.58126114 5.83378784 -2.58126114 5.83378784 -1.97323608 4.3371582 C-1.362657 2.87089536 -0.71031451 1.42062903 0 0 Z " fill="#2593FA" transform="translate(116,101)"/>
<path d="M0 0 C0.74093399 -0.0033284 1.48186798 -0.0066568 2.24525452 -0.01008606 C3.81120178 -0.01514478 5.37715981 -0.01749471 6.94311523 -0.01733398 C9.33530478 -0.01951996 11.72703268 -0.03768495 14.11914062 -0.05664062 C15.64192551 -0.05957489 17.16471258 -0.06155947 18.6875 -0.0625 C19.40115219 -0.06968552 20.11480438 -0.07687103 20.8500824 -0.08427429 C24.50909376 -0.06749021 27.36141578 0.02475744 30.41015625 2.16796875 C32.43282046 6.21329717 31.86859474 10.574123 30.65625 14.7890625 C29.63521249 17.61193092 28.544373 20.38843758 27.41015625 23.16796875 C26.09015625 26.46796875 24.77015625 29.76796875 23.41015625 33.16796875 C4.60015625 33.66296875 4.60015625 33.66296875 -14.58984375 34.16796875 C-14.91984375 35.81796875 -15.24984375 37.46796875 -15.58984375 39.16796875 C-3.70984375 39.49796875 8.17015625 39.82796875 20.41015625 40.16796875 C17.41015625 49.16796875 17.41015625 49.16796875 15.41015625 53.16796875 C9.52029162 53.24222514 3.63070059 53.29662143 -2.25952148 53.33276367 C-4.26249947 53.3478334 -6.26544455 53.36829285 -8.26831055 53.39428711 C-11.15031056 53.43075002 -14.03187359 53.44771336 -16.9140625 53.4609375 C-17.8069548 53.47642136 -18.69984711 53.49190521 -19.61979675 53.50785828 C-24.42457442 53.50915362 -27.71265234 53.34988628 -31.58984375 50.16796875 C-33.79051457 45.76662712 -33.0607953 40.80350453 -31.74511719 36.234375 C-30.5658599 33.00693402 -29.28990752 29.83825027 -27.96484375 26.66796875 C-27.53816406 25.59160156 -27.11148437 24.51523438 -26.671875 23.40625 C-23.05651388 14.54591722 -19.32969567 5.82922311 -10.58984375 1.16796875 C-7.0072599 -0.02622587 -3.72951663 0.00579912 0 0 Z M-7.58984375 15.16796875 C-8.24984375 17.14796875 -8.90984375 19.12796875 -9.58984375 21.16796875 C-2.65984375 21.16796875 4.27015625 21.16796875 11.41015625 21.16796875 C13.63376305 17.46611115 13.63376305 17.46611115 13.41015625 14.16796875 C10.09399435 13.06258145 7.5247899 13.00043233 4.03515625 12.98046875 C2.35292969 12.95919922 2.35292969 12.95919922 0.63671875 12.9375 C-2.67573191 13.17410362 -4.76080944 13.4235642 -7.58984375 15.16796875 Z " fill="#0E0E0E" transform="translate(343.58984375,116.83203125)"/>
<path d="M0 0 C1.1859375 0.00257812 2.371875 0.00515625 3.59375 0.0078125 C4.7796875 0.00523438 5.965625 0.00265625 7.1875 0 C10.09375 0.1328125 10.09375 0.1328125 11.09375 1.1328125 C10.69957544 6.84834359 9.43688959 10.9300348 7.09375 16.1328125 C7.89071289 16.12233887 8.68767578 16.11186523 9.50878906 16.10107422 C13.12041062 16.05949478 16.73198179 16.03347989 20.34375 16.0078125 C21.59800781 15.99105469 22.85226562 15.97429687 24.14453125 15.95703125 C25.34980469 15.95058594 26.55507813 15.94414063 27.796875 15.9375 C29.46218262 15.92178955 29.46218262 15.92178955 31.16113281 15.90576172 C34.06096918 16.13027452 35.69204417 16.53144106 38.09375 18.1328125 C40.20416232 22.35363713 39.36745093 27.16373317 38.1328125 31.53515625 C37.66617188 32.70175781 37.19953125 33.86835938 36.71875 35.0703125 C36.46270996 35.72128906 36.20666992 36.37226563 35.94287109 37.04296875 C35.35372154 38.53362893 34.7576897 40.02158021 34.15625 41.50732422 C32.91414472 44.57662574 31.69134371 47.65334442 30.46875 50.73046875 C28.02521019 56.87059003 25.56321442 63.00307472 23.09375 69.1328125 C17.81375 69.1328125 12.53375 69.1328125 7.09375 69.1328125 C9.90941529 60.37814459 13.25516177 51.85165968 16.59765625 43.28710938 C17.03207031 42.16755859 17.46648437 41.04800781 17.9140625 39.89453125 C18.30867676 38.88350342 18.70329102 37.87247559 19.10986328 36.83081055 C20.21309581 33.95155872 20.21309581 33.95155872 21.09375 30.1328125 C14.49375 29.8028125 7.89375 29.4728125 1.09375 29.1328125 C0.72636719 30.46054688 0.35898437 31.78828125 -0.01953125 33.15625 C-2.23406419 40.53802646 -5.19593267 47.62563699 -8.09375 54.7578125 C-8.65860795 56.15738877 -9.22306406 57.55712729 -9.78710938 58.95703125 C-11.15480571 62.35116753 -12.53066088 65.74182538 -13.90625 69.1328125 C-19.18625 69.1328125 -24.46625 69.1328125 -29.90625 69.1328125 C-29.07669212 64.9850231 -28.05973129 61.69067165 -26.51367188 57.79785156 C-26.27129288 57.18425278 -26.02891388 56.57065399 -25.77919006 55.9384613 C-24.98195628 53.92344106 -24.17863617 51.91091196 -23.375 49.8984375 C-22.81802232 48.49562138 -22.26134536 47.09268582 -21.70495605 45.68963623 C-20.54082714 42.75670587 -19.37380946 39.82494751 -18.20458984 36.89404297 C-16.70343981 33.13070709 -15.20840345 29.36497928 -13.71535492 25.598423 C-12.56785256 22.70495861 -11.41772989 19.81254177 -10.26673889 16.92046356 C-9.71424055 15.53160299 -9.16243092 14.14246825 -8.61131287 12.75305939 C-7.84306483 10.81773104 -7.07144463 8.88378308 -6.29882812 6.95019531 C-5.64049988 5.29736542 -5.64049988 5.29736542 -4.96887207 3.61114502 C-3.4889016 0.15943905 -3.4889016 0.15943905 0 0 Z " fill="#121212" transform="translate(274.90625,100.8671875)"/>
<path d="M0 0 C1.47118538 0.0001133 1.47118538 0.0001133 2.97209167 0.00022888 C4.028423 0.00539017 5.08475433 0.01055145 6.1730957 0.01586914 C7.79813774 0.01799156 7.79813774 0.01799156 9.45600891 0.02015686 C12.9203262 0.0257598 16.38457915 0.03831281 19.84887695 0.05102539 C22.19588123 0.05604001 24.54288652 0.06060298 26.88989258 0.06469727 C32.64707603 0.07573018 38.4042219 0.09247119 44.16137695 0.11352539 C43.35212353 2.2605852 42.53888582 4.40614369 41.72387695 6.55102539 C41.27141602 7.74598633 40.81895508 8.94094727 40.3527832 10.17211914 C39.16137695 13.11352539 39.16137695 13.11352539 38.16137695 14.11352539 C35.25279244 14.24917666 32.36465327 14.32418116 29.4543457 14.35961914 C27.65290868 14.39256437 25.8514765 14.4257759 24.05004883 14.45922852 C21.19941639 14.50662037 18.3488027 14.55102641 15.49804688 14.59033203 C12.75409878 14.63007181 10.01056526 14.68162127 7.2668457 14.73461914 C6.41567673 14.74303329 5.56450775 14.75144745 4.68754578 14.76011658 C3.89024551 14.77675858 3.09294525 14.79340057 2.27148438 14.81054688 C1.57278732 14.82085434 0.87409027 14.8311618 0.15422058 14.84178162 C-2.22709946 15.16649796 -3.80470927 15.83804861 -5.83862305 17.11352539 C-7.12044929 19.28874569 -8.15234837 21.3136299 -9.15112305 23.61352539 C-9.4445459 24.26554932 -9.73796875 24.91757324 -10.0402832 25.58935547 C-16.25733916 39.56288828 -16.25733916 39.56288828 -20.83862305 54.11352539 C-6.64862305 54.44352539 7.54137695 54.77352539 22.16137695 55.11352539 C20.51137695 59.73352539 18.86137695 64.35352539 17.16137695 69.11352539 C10.15049548 69.18778513 3.13984392 69.2421802 -3.87133789 69.27832031 C-6.25549305 69.29338939 -8.63962058 69.3138483 -11.02368164 69.33984375 C-14.45425242 69.37630876 -17.88445605 69.39327091 -21.31518555 69.40649414 C-22.3779068 69.421978 -23.44062805 69.43746185 -24.53555298 69.45341492 C-29.9878554 69.45464965 -34.23665615 69.41489492 -38.83862305 66.11352539 C-41.34244718 59.12917385 -38.75336699 52.7708328 -35.84790039 46.20483398 C-32.13056936 38.50220757 -27.42043016 31.31974174 -22.83862305 24.11352539 C-22.18845215 23.08163086 -21.53828125 22.04973633 -20.8684082 20.98657227 C-18.85041141 17.79137046 -16.81695599 14.6066826 -14.77612305 11.42602539 C-14.13304199 10.41548096 -13.48996094 9.40493652 -12.82739258 8.36376953 C-12.22137207 7.43169678 -11.61535156 6.49962402 -10.9909668 5.53930664 C-10.45463623 4.70826416 -9.91830566 3.87722168 -9.36572266 3.02099609 C-6.77917532 -0.20981036 -3.86628547 -0.00993904 0 0 Z " fill="#131313" transform="translate(218.838623046875,100.886474609375)"/>
<path d="M0 0 C5.60504881 -0.04951793 11.20996965 -0.08577555 16.81518555 -0.10986328 C18.7211326 -0.11990737 20.62706429 -0.13354516 22.53295898 -0.15087891 C25.27591752 -0.17519718 28.01867191 -0.18649912 30.76171875 -0.1953125 C32.03543587 -0.21079636 32.03543587 -0.21079636 33.33488464 -0.22659302 C41.31418831 -0.22809888 41.31418831 -0.22809888 45 2 C46.58929952 4.17873356 46.99849702 5.46818727 47.00610352 8.15966797 C45.46276435 16.78557139 42.23891154 24.66097611 38.92260742 32.72851562 C37.9268819 35.1508308 36.94563717 37.57863075 35.96679688 40.0078125 C35.34195712 41.54980816 34.71633534 43.09148722 34.08984375 44.6328125 C33.64764748 45.72168259 33.64764748 45.72168259 33.19651794 46.83255005 C31.11846707 51.88153293 31.11846707 51.88153293 30 53 C27.46950598 53.07313567 24.96695163 53.09247527 22.4375 53.0625 C21.72658203 53.05798828 21.01566406 53.05347656 20.28320312 53.04882812 C18.52209987 53.03700864 16.76103964 53.01907263 15 53 C15.66736489 48.94632385 16.92767395 45.40087496 18.46875 41.59765625 C19.20158203 39.76750977 19.20158203 39.76750977 19.94921875 37.90039062 C20.72414497 35.97976128 21.50103439 34.05995094 22.27978516 32.14086914 C23.03538541 30.27435947 23.78339882 28.40478421 24.53125 26.53515625 C24.98048828 25.425354 25.42972656 24.31555176 25.89257812 23.17211914 C27.24208925 19.59521644 27.24208925 19.59521644 28 14 C22.39 13.67 16.78 13.34 11 13 C10.63132812 14.1653125 10.26265625 15.330625 9.8828125 16.53125 C7.74767816 22.93414404 5.21742474 29.1812828 2.70166016 35.44140625 C1.86620738 37.52189585 1.03639716 39.60457751 0.20703125 41.6875 C-0.32258442 43.01054971 -0.85252033 44.33347129 -1.3828125 45.65625 C-1.86121582 46.85056641 -2.33961914 48.04488281 -2.83251953 49.27539062 C-4 52 -4 52 -5 53 C-7.69654854 53.07319621 -10.36691458 53.09242537 -13.0625 53.0625 C-14.20041992 53.05573242 -14.20041992 53.05573242 -15.36132812 53.04882812 C-17.24091871 53.0370068 -19.12046899 53.01907078 -21 53 C-14.25168459 35.22389559 -7.2423241 17.58019121 0 0 Z " fill="#111111" transform="translate(389,117)"/>
<path d="M0 0 C5.61 0 11.22 0 17 0 C18.297359 2.594718 18.31574654 4.76785439 18.53515625 7.6640625 C18.62216797 8.78554687 18.70917969 9.90703125 18.79882812 11.0625 C18.88583984 12.238125 18.97285156 13.41375 19.0625 14.625 C19.15337891 15.80835937 19.24425781 16.99171875 19.33789062 18.2109375 C19.56232233 21.14036185 19.78285965 24.07002763 20 27 C23.52506192 23.51304686 26.94946111 19.95782001 30.3125 16.3125 C30.79976562 15.79719727 31.28703125 15.28189453 31.7890625 14.75097656 C34.12176386 12.2443997 36.03634023 9.94015923 37.82421875 6.99609375 C39.70638407 3.91179954 40.99508734 2.04157301 44 0 C50.26382537 -1.20093805 56.69477935 -0.57204623 63 0 C56.36813744 7.76820166 49.56730851 15.3560105 42.57275391 22.79907227 C41.26498527 24.19289988 39.96132068 25.59058859 38.66162109 26.99194336 C35.83007399 30.03761423 33.00796724 33.04080304 29.94140625 35.8515625 C20.38155187 45.0452948 16.55960198 56.77512355 12 69 C6.39 69 0.78 69 -5 69 C-4.33871094 67.5253125 -3.67742188 66.050625 -2.99609375 64.53125 C1.79781611 53.42823241 5.40099516 44.75687336 3.38525391 32.62060547 C2.88343625 29.20710057 2.55526172 25.78148356 2.23046875 22.34765625 C2.16576385 21.66553574 2.10105896 20.98341522 2.03439331 20.28062439 C1.90233036 18.88624906 1.77046512 17.491855 1.63879395 16.09744263 C1.12353439 10.72854116 0.55534702 5.36486177 0 0 Z " fill="#2493FA" transform="translate(46,101)"/>
<path d="M0 0 C5.28 0 10.56 0 16 0 C13.88822329 6.51247879 11.5462542 12.88653204 9.0234375 19.25 C8.65272125 20.18932373 8.282005 21.12864746 7.90005493 22.09643555 C7.12303827 24.06329674 6.34481401 26.02968127 5.56542969 27.99560547 C4.36797475 31.01773026 3.17595635 34.04196148 1.984375 37.06640625 C1.22688588 38.98189875 0.46908472 40.89726788 -0.2890625 42.8125 C-0.6463443 43.71967773 -1.0036261 44.62685547 -1.37173462 45.56152344 C-1.86762589 46.8091748 -1.86762589 46.8091748 -2.37353516 48.08203125 C-2.6642691 48.81655518 -2.95500305 49.5510791 -3.25454712 50.30786133 C-4 52 -4 52 -5 53 C-7.6986905 53.07325436 -10.36502556 53.09222351 -13.0625 53.0625 C-14.47843153 53.05101098 -15.89436603 53.03988482 -17.31030273 53.02905273 C-19.13670288 53.01467163 -19.13670288 53.01467163 -21 53 C-17.02598234 42.25369732 -12.89102424 31.58122027 -8.62084961 20.94921875 C-7.66900497 18.57894385 -6.72006849 16.20751892 -5.77148438 13.8359375 C-5.16422744 12.32024641 -4.55681189 10.80461885 -3.94921875 9.2890625 C-3.66696945 8.58399567 -3.38472015 7.87892883 -3.09391785 7.15249634 C-1.11622609 2.23245218 -1.11622609 2.23245218 0 0 Z " fill="#151515" transform="translate(583,117)"/>
<path d="M0 0 C5.45928787 0.92985554 9.97337017 3.12142817 14.9375 5.5 C15.86884766 5.9448877 16.80019531 6.38977539 17.75976562 6.84814453 C26.59316536 11.15054057 35.05460441 15.96030186 42.6875 22.1953125 C44.95169185 24.16965372 44.95169185 24.16965372 48 25 C49.6484375 26.70703125 49.6484375 26.70703125 51.375 28.8125 C53.40162339 31.2265661 55.04649725 33.03321232 57.625 34.875 C61.31899456 38.18015303 63.21324037 42.41688893 65 47 C65.04125 48.093125 65.0825 49.18625 65.125 50.3125 C65.74382563 53.21992923 65.74382563 53.21992923 68.49609375 54.47265625 C71.30052391 55.75519183 74.11057292 56.92420013 77 58 C73.35839192 59.21386936 72.66834531 58.6674695 69.3125 57.0625 C68.10013672 56.49208984 68.10013672 56.49208984 66.86328125 55.91015625 C66.24839844 55.60980469 65.63351562 55.30945313 65 55 C64.67 56.65 64.34 58.3 64 60 C61.36 60 58.72 60 56 60 C57.875 54.125 57.875 54.125 59 53 C59.46985261 49.64390989 59.69672401 47.10353602 57.8359375 44.15625 C56.29311645 42.35233616 54.69227059 40.66413307 53 39 C49.60230349 35.60230349 46.43941823 32.1949524 43.4296875 28.453125 C41.95268301 26.73174415 41.95268301 26.73174415 39 26 C38.27296875 25.25363281 37.5459375 24.50726563 36.796875 23.73828125 C33.54132789 20.55093694 30.17898659 18.44539311 26.25 16.1875 C25.51789307 15.76098145 24.78578613 15.33446289 24.03149414 14.89501953 C16.25135016 10.44046675 8.17591152 6.66329953 0 3 C0 2.01 0 1.02 0 0 Z " fill="#5E6062" transform="translate(233,52)"/>
<path d="M0 0 C0 0.66 0 1.32 0 2 C-1.98689731 3.35278115 -3.98745218 4.68568305 -6 6 C-7.74251059 9.48502118 -7.45360548 13.189714 -7 17 C-5.12553841 22.41634179 -5.12553841 22.41634179 -1 26 C-0.62875 26.70125 -0.2575 27.4025 0.125 28.125 C3.22168571 32.87325142 7.56685257 37.18895086 13 39 C13.55300781 39.5775 14.10601562 40.155 14.67578125 40.75 C17.83624031 43.80953684 21.39301302 45.80895765 25.1875 48 C25.90486328 48.42539063 26.62222656 48.85078125 27.36132812 49.2890625 C32.42394223 52.24414253 37.59983999 54.72390607 43 57 C43 57.99 43 58.98 43 60 C23.09703018 56.71321061 1.67914937 39.28853428 -10.7265625 23.8515625 C-14.53396221 18.31565004 -15.63232057 13.53397921 -15 7 C-13.50282018 3.79175753 -11.72481464 1.27067886 -9 -1 C-5.23375329 -2.25541557 -3.62811066 -1.37061958 0 0 Z " fill="#525252" transform="translate(150,43)"/>
<path d="M0 0 C-0.33 0.66 -0.66 1.32 -1 2 C-8.81055229 0.32688478 -16.50321622 -1.68985122 -24.20898438 -3.7890625 C-36.79461812 -7.14071749 -48.59400019 -8.26423549 -61.5625 -8.0625 C-63.7335467 -8.03477425 -65.90452571 -8.01013607 -68.07566833 -7.99131775 C-70.0213023 -7.97363424 -71.9668406 -7.94620859 -73.91235352 -7.91821289 C-77 -8 -77 -8 -80 -9 C-80 -9.66 -80 -10.32 -80 -11 C-57.34515048 -20.69813764 -21.37169757 -9.59022914 0 0 Z " fill="#555657" transform="translate(229,50)"/>
<path d="M0 0 C5.28 0 10.56 0 16 0 C14.68 3.63 13.36 7.26 12 11 C6.72 11 1.44 11 -4 11 C-3 6 -3 6 0 0 Z " fill="#1E1E1E" transform="translate(589,103)"/>
<path d="M0 0 C6.76903233 0.57038547 12.93000898 1.89405166 19.4375 3.8125 C20.31470703 4.06064453 21.19191406 4.30878906 22.09570312 4.56445312 C28.22883069 6.34066472 34.11464126 8.52765881 40 11 C39.67 11.66 39.34 12.32 39 13 C32.16730398 11.53635348 25.4353753 9.81082789 18.6875 8 C10.82923094 5.91508906 3.07918596 4.00772642 -5 3 C-5 2.67 -5 2.34 -5 2 C-3.35 2 -1.7 2 0 2 C0 1.34 0 0.68 0 0 Z " fill="#777777" transform="translate(189,39)"/>
<path d="M0 0 C4.4272348 0.59071251 8.16389042 1.71583983 12.28125 3.43359375 C13.45300781 3.91763672 14.62476562 4.40167969 15.83203125 4.90039062 C17.64767578 5.66125977 17.64767578 5.66125977 19.5 6.4375 C21.90554705 7.43788991 24.31177467 8.43664522 26.71875 9.43359375 C27.78029297 9.87759521 28.84183594 10.32159668 29.93554688 10.77905273 C32.9265938 11.97075332 35.93589234 13.01334586 39 14 C36 16 36 16 33 17 C33 16.34 33 15.68 33 15 C32.46342773 14.83636963 31.92685547 14.67273926 31.37402344 14.50415039 C25.40823889 12.61009741 19.86771173 10.18363819 14.25 7.4375 C7.22165532 4.00038078 7.22165532 4.00038078 0 1 C0 0.67 0 0.34 0 0 Z " fill="#83C1FA" transform="translate(110,25)"/>
<path d="M0 0 C5.09882455 1.5280389 9.65665659 3.71036856 14.375 6.125 C15.11105469 6.49753906 15.84710938 6.87007813 16.60546875 7.25390625 C18.40550358 8.1656122 20.20301402 9.08229932 22 10 C22 10.99 22 11.98 22 13 C16.80771145 12.42770367 12.6896297 9.9017839 8.1875 7.4375 C7.39923828 7.01275391 6.61097656 6.58800781 5.79882812 6.15039062 C3.8626622 5.10603446 1.92994633 4.0557923 0 3 C0 2.01 0 1.02 0 0 Z " fill="#636363" transform="translate(171,90)"/>
<path d="M0 0 C5.51557841 0.02302955 10.31279928 2.93844267 15.125 5.375 C11.48339192 6.58886936 10.79334531 6.0424695 7.4375 4.4375 C6.62925781 4.05722656 5.82101562 3.67695312 4.98828125 3.28515625 C4.06595703 2.83462891 4.06595703 2.83462891 3.125 2.375 C2.795 4.025 2.465 5.675 2.125 7.375 C-0.515 7.375 -3.155 7.375 -5.875 7.375 C-3.6742278 0.4792471 -3.6742278 0.4792471 0 0 Z " fill="#77818A" transform="translate(294.875,104.625)"/>
<path d="M0 0 C0.66 0.33 1.32 0.66 2 1 C1.42289536 4.98358174 0.20207188 7.68992509 -1.94140625 11.08203125 C-2.52470703 12.01337891 -3.10800781 12.94472656 -3.70898438 13.90429688 C-4.62647461 15.34385742 -4.62647461 15.34385742 -5.5625 16.8125 C-6.17802734 17.79154297 -6.79355469 18.77058594 -7.42773438 19.77929688 C-8.945074 22.19057303 -10.4693173 24.59718045 -12 27 C-12.33 26.34 -12.66 25.68 -13 25 C-11.92016602 22.47802734 -11.92016602 22.47802734 -10.25390625 19.3359375 C-9.66416016 18.21445313 -9.07441406 17.09296875 -8.46679688 15.9375 C-7.83220229 14.74990859 -7.19743439 13.56240977 -6.5625 12.375 C-5.93090984 11.18007348 -5.30004094 9.98476543 -4.66992188 8.7890625 C-3.12035638 5.85553392 -1.56345147 2.92614478 0 0 Z " fill="#66B4FC" transform="translate(167,159)"/>
<path d="M0 0 C1.32 0 2.64 0 4 0 C2.62712658 3.69876091 0.93644547 6.9514476 -1.125 10.3125 C-1.66382813 11.19550781 -2.20265625 12.07851562 -2.7578125 12.98828125 C-3.16773438 13.65214844 -3.57765625 14.31601563 -4 15 C-4.66 14.67 -5.32 14.34 -6 14 C-4.50829734 9.0276578 -2.39542583 4.58154261 0 0 Z " fill="#58AEFC" transform="translate(174,146)"/>
<path d="M0 0 C6.16356805 1.6658292 11.48259656 4.87805286 17 8 C16.67 8.66 16.34 9.32 16 10 C13.525 9.01 13.525 9.01 11 8 C10.67 8.66 10.34 9.32 10 10 C9.67 9.01 9.34 8.02 9 7 C6.97635676 6.09721088 4.94247804 5.54616787 2.8125 4.94140625 C1 4 1 4 0.25 1.90234375 C0.1675 1.27457031 0.085 0.64679688 0 0 Z " fill="#66B5FD" transform="translate(276,95)"/>
<path d="M0 0 C1.32 0.33 2.64 0.66 4 1 C2.66602243 4.59147806 1.25016162 7.8843916 -1 11 C-3.1875 11.8125 -3.1875 11.8125 -5 12 C-3.68938409 7.76570244 -2.05643741 3.92592596 0 0 Z " fill="#44A3FC" transform="translate(180,135)"/>
<path d="M0 0 C1.32712688 3.98138065 0.21074411 5.28059793 -1.56054688 8.90234375 C-1.93244141 9.63582031 -2.30433594 10.36929687 -2.6875 11.125 C-3.04005859 11.86621094 -3.39261719 12.60742188 -3.75585938 13.37109375 C-4.10841797 14.07621094 -4.46097656 14.78132813 -4.82421875 15.5078125 C-5.14479248 16.15379395 -5.46536621 16.79977539 -5.7956543 17.46533203 C-7.34436934 19.43882134 -8.56957189 19.63265042 -11 20 C-9.36047417 15.3606824 -6.93128948 11.36144142 -4.375 7.1875 C-3.95476562 6.49462891 -3.53453125 5.80175781 -3.1015625 5.08789062 C-2.0710533 3.38989252 -1.03598319 1.69466386 0 0 Z " fill="#83C2FD" transform="translate(250,14)"/>
<path d="M0 0 C5.66104589 0.49658297 9.87674471 1.54510684 15 4 C14.67 4.66 14.34 5.32 14 6 C9.16371695 5.00956295 4.52381127 4.04301154 0 2 C0 1.34 0 0.68 0 0 Z " fill="#616162" transform="translate(214,46)"/>
<path d="M0 0 C3.87302138 1.14430177 7.00263439 2.23320098 10 5 C10 5.66 10 6.32 10 7 C6.44219804 6.39009109 3.3171411 5.4216319 0 4 C0 2.68 0 1.36 0 0 Z " fill="#49A6FC" transform="translate(267,91)"/>
<path d="M0 0 C2.97 0.33 5.94 0.66 9 1 C6 4 6 4 3.30078125 4.07421875 C1.82158203 3.88279297 1.82158203 3.88279297 0.3125 3.6875 C-1.17830078 3.50767578 -1.17830078 3.50767578 -2.69921875 3.32421875 C-3.45847656 3.21722656 -4.21773437 3.11023437 -5 3 C-5 2.67 -5 2.34 -5 2 C-3.35 2 -1.7 2 0 2 C0 1.34 0 0.68 0 0 Z " fill="#7E7E7E" transform="translate(189,39)"/>
<path d="M0 0 C7.56634615 -0.37211538 7.56634615 -0.37211538 9.76171875 1.51171875 C10.17035156 2.00285156 10.57898438 2.49398437 11 3 C9.54257537 3.08096803 8.08387193 3.13917774 6.625 3.1875 C5.81289062 3.22230469 5.00078125 3.25710937 4.1640625 3.29296875 C3.44992188 3.19628906 2.73578125 3.09960938 2 3 C1.34 2.01 0.68 1.02 0 0 Z " fill="#535353" transform="translate(194,41)"/>
<path d="M0 0 C0.66 0.99 1.32 1.98 2 3 C-0.31 6.63 -2.62 10.26 -5 14 C-5.33 13.34 -5.66 12.68 -6 12 C-4.78515625 9.1796875 -4.78515625 9.1796875 -3.0625 5.875 C-2.49660156 4.77929688 -1.93070313 3.68359375 -1.34765625 2.5546875 C-0.90292969 1.71164063 -0.45820313 0.86859375 0 0 Z " fill="#93CAFC" transform="translate(160,172)"/>
<path d="M0 0 C0.66 0.33 1.32 0.66 2 1 C-0.64 3.64 -3.28 6.28 -6 9 C-6 5.06368636 -4.57142871 3.87394974 -2 1 C-1.34 0.67 -0.68 0.34 0 0 Z " fill="#666666" transform="translate(453,119)"/>
<path d="M0 0 C0.66 0.33 1.32 0.66 2 1 C-0.31 3.31 -2.62 5.62 -5 8 C-5.66 7.67 -6.32 7.34 -7 7 C-2.25 1.125 -2.25 1.125 0 0 Z " fill="#5F5F5F" transform="translate(331,119)"/>
<path d="M0 0 C3.9492568 0.55105909 7.34920174 1.38935371 11 3 C9.4375 4.25 9.4375 4.25 7 5 C4.42998985 3.93237266 2.3469597 2.53455057 0 1 C0 0.67 0 0.34 0 0 Z " fill="#7CBFFC" transform="translate(125,31)"/>
<path d="M0 0 C0.33 0.99 0.66 1.98 1 3 C-0.4375 5.6875 -0.4375 5.6875 -2 8 C-2.66 7.67 -3.32 7.34 -4 7 C-3.39816251 4.97954558 -2.72693904 2.97888961 -2 1 C-1.34 0.67 -0.68 0.34 0 0 Z " fill="#49A6FC" transform="translate(172,153)"/>
<path d="M0 0 C3.25696479 0.41755959 4.63443291 0.63443291 7 3 C4.6875 3.6875 4.6875 3.6875 2 4 C0.1875 2.5625 0.1875 2.5625 -1 1 C-0.67 0.67 -0.34 0.34 0 0 Z " fill="#606162" transform="translate(233,52)"/>
<path d="M0 0 C2.31 0.33 4.62 0.66 7 1 C7 1.99 7 2.98 7 4 C4.525 3.01 4.525 3.01 2 2 C1.67 2.66 1.34 3.32 1 4 C0.67 2.68 0.34 1.36 0 0 Z " fill="#67A8E3" transform="translate(285,101)"/>
<path d="M0 0 C2.64 0.33 5.28 0.66 8 1 C7.67 1.66 7.34 2.32 7 3 C4.69 2.67 2.38 2.34 0 2 C0 1.34 0 0.68 0 0 Z " fill="#545454" transform="translate(214,46)"/>
<path d="M0 0 C0.66 0.33 1.32 0.66 2 1 C-0.31 3.31 -2.62 5.62 -5 8 C-5.33 7.34 -5.66 6.68 -6 6 C-4 4 -2 2 0 0 Z " fill="#666666" transform="translate(501,152)"/>
<path d="M0 0 C2.97 0.495 2.97 0.495 6 1 C6.33 1.99 6.66 2.98 7 4 C2.25 3.125 2.25 3.125 0 2 C0 1.34 0 0.68 0 0 Z " fill="#1884E9" transform="translate(146,40)"/>
<path d="M0 0 C0.33 0.66 0.66 1.32 1 2 C-0.4375 4.625 -0.4375 4.625 -2 7 C-2.33 6.34 -2.66 5.68 -3 5 C-1.5625 2.375 -1.5625 2.375 0 0 Z " fill="#D6EBFE" transform="translate(153,186)"/>
</svg>
